<svg width="379" height="387" viewBox="0 0 379 387" fill="none" xmlns="http://www.w3.org/2000/svg">
<path d="M369.728 237.288C356.156 266.783 338.748 292.001 317.505 312.943C296.262 333.885 272.068 350.992 244.924 364.265C217.78 377.538 187.98 385.059 155.525 386.829C123.071 388.598 96.8116 376.653 76.7485 350.992C56.6855 325.331 38.5402 300.113 22.3128 275.337C6.0853 250.561 -1.29082 223.278 0.184403 193.487C1.65963 163.697 8.29813 135.087 20.0999 107.656C31.9017 80.2255 49.1618 54.7121 71.8803 31.1159C94.5987 7.51967 122.333 -2.65619 155.083 0.588285C187.833 3.83276 217.485 11.7965 244.039 24.4794C270.593 37.1624 293.459 54.4171 312.637 76.2436C331.815 98.0701 349.517 122.994 365.745 151.014C381.972 179.035 383.3 207.792 369.728 237.288Z" fill="#355C7D"/>
</svg>
