<svg width="267" height="272" viewBox="0 0 267 272" fill="none" xmlns="http://www.w3.org/2000/svg">
<path d="M260.468 166.776C250.907 187.506 238.643 205.231 223.678 219.95C208.712 234.668 191.668 246.692 172.545 256.021C153.423 265.349 132.429 270.636 109.565 271.88C86.7014 273.123 68.2023 264.728 54.0682 246.692C39.9341 228.656 27.151 210.932 15.719 193.518C4.287 176.105 -0.909365 156.929 0.129909 135.991C1.16918 115.053 5.84592 94.9446 14.1601 75.6653C22.4743 56.3859 34.6338 38.454 50.6386 21.8696C66.6434 5.28514 86.1818 -1.86689 109.254 0.413471C132.326 2.69383 153.215 8.29107 171.922 17.2052C190.629 26.1193 206.738 38.2467 220.248 53.5873C233.759 68.9278 246.23 86.4451 257.662 106.139C269.094 125.833 270.029 146.045 260.468 166.776Z" fill="#D869C0"/>
</svg>
