<svg width="415" height="383" viewBox="0 0 415 383" fill="none" xmlns="http://www.w3.org/2000/svg">
<path d="M384.891 200.519C391.557 213.519 398.557 229.186 405.891 247.519C413.224 265.852 416.057 284.519 414.391 303.519C412.724 322.519 396.057 326.519 364.391 315.519C332.724 304.519 317.224 312.686 317.891 340.019C318.557 367.352 310.557 381.352 293.891 382.019C277.224 382.686 261.224 372.019 245.891 350.019C230.557 328.019 217.391 318.519 206.391 321.519C195.391 324.519 182.224 329.186 166.891 335.519C151.557 341.852 138.224 341.352 126.891 334.019C115.557 326.686 98.8905 323.186 76.8905 323.519C54.8905 323.852 41.3905 315.686 36.3905 299.019C31.3905 282.352 36.8905 264.019 52.8905 244.019C68.8905 224.019 76.8905 208.519 76.8905 197.519C76.8905 186.519 61.5572 172.019 30.8905 154.019C0.223845 136.019 -7.60949 120.519 7.39051 107.519C22.3905 94.5191 41.5572 87.1857 64.8905 85.5191C88.2238 83.8524 106.224 81.6857 118.891 79.0191C131.557 76.3524 142.891 73.5191 152.891 70.5191C162.891 67.5191 172.391 64.3524 181.391 61.019C190.391 57.6857 199.557 44.6857 208.891 22.019C218.224 -0.647619 228.891 -5.81429 240.891 6.51905C252.891 18.8524 266.724 22.1857 282.391 16.519C298.057 10.8524 310.891 13.1857 320.891 23.519C330.891 33.8524 343.891 41.3524 359.891 46.019C375.891 50.6857 377.391 64.5191 364.391 87.5191C351.391 110.519 356.891 124.519 380.891 129.519C404.891 134.519 409.891 144.352 395.891 159.019C381.891 173.686 378.224 187.519 384.891 200.519Z" fill="#F25476"/>
</svg>
